<svg width="29" height="28" viewBox="0 0 29 28" fill="none" xmlns="http://www.w3.org/2000/svg">
<path d="M6.54668 9.677H2.0657C0.926158 9.677 0 10.6009 0 11.7427V16.2237C0 17.3632 0.923888 18.2894 2.0657 18.2894H6.54668C7.68622 18.2894 8.61238 17.3655 8.61238 16.2237V11.7427C8.61238 10.6032 7.68849 9.677 6.54668 9.677ZM7.33664 15.5608C7.33664 16.3644 6.68515 17.0136 5.88384 17.0136H2.73081C1.92723 17.0136 1.27801 16.3622 1.27801 15.5608V12.4078C1.27801 11.6042 1.9295 10.955 2.73081 10.955H5.88384C6.68742 10.955 7.33664 11.6065 7.33664 12.4078V15.5608Z" fill="url(#paint0_linear_98_84)"/>
<path d="M6.54668 0H2.0657C0.926158 0 0 0.923891 0 2.0657V6.54667C0 7.68621 0.923888 8.61237 2.0657 8.61237H6.54668C7.68622 8.61237 8.61238 7.68848 8.61238 6.54667V2.0657C8.61238 0.923891 7.68849 0 6.54668 0ZM7.33664 5.88157C7.33664 6.68514 6.68515 7.33436 5.88384 7.33436H2.73081C1.92723 7.33436 1.27801 6.68288 1.27801 5.88157V2.72854C1.27801 1.92496 1.9295 1.27574 2.73081 1.27574H5.88384C6.68742 1.27574 7.33664 1.92723 7.33664 2.72854V5.88157Z" fill="url(#paint1_linear_98_84)"/>
<path d="M12.1018 8.6101H16.5828C17.7224 8.6101 18.6485 7.68622 18.6485 6.54441V2.0657C18.6485 0.92616 17.7246 0 16.5828 0H12.1018C10.9623 0 10.0361 0.92389 10.0361 2.0657V6.54667C10.0361 7.68621 10.96 8.6101 12.1018 8.6101ZM11.3119 2.72854C11.3119 1.92496 11.9634 1.27574 12.7647 1.27574H15.9177C16.7213 1.27574 17.3705 1.92723 17.3705 2.72854V5.88157C17.3705 6.68514 16.719 7.33436 15.9177 7.33436H12.7647C11.9611 7.33436 11.3119 6.68287 11.3119 5.88157V2.72854Z" fill="url(#paint2_linear_98_84)"/>
<path d="M26.4959 0H22.0149C20.8754 0 19.9492 0.923891 19.9492 2.0657V6.54667C19.9492 7.68621 20.8731 8.61237 22.0149 8.61237H26.4959C27.6354 8.61237 28.5616 7.68848 28.5616 6.54667V2.0657C28.5616 0.923891 27.6377 0 26.4959 0ZM27.2859 5.88157C27.2859 6.68514 26.6344 7.33436 25.8331 7.33436H22.68C21.8764 7.33436 21.2272 6.68288 21.2272 5.88157V2.72854C21.2272 1.92496 21.8787 1.27574 22.68 1.27574H25.8331C26.6366 1.27574 27.2859 1.92723 27.2859 2.72854V5.88157Z" fill="url(#paint3_linear_98_84)"/>
<path d="M19.9515 9.677H11.7046C10.783 9.677 10.0361 10.4238 10.0361 11.3455V16.6209C10.0361 17.5426 10.783 18.2894 11.7046 18.2894H19.9515V17.8717V9.677Z" fill="url(#paint4_linear_98_84)"/>
<path d="M27.0516 9.677H20.2598V17.8694H28.5589V11.1843C28.5611 10.3535 27.8847 9.677 27.0516 9.677Z" fill="url(#paint5_linear_98_84)"/>
<path d="M20.2622 9.677H19.9512V17.8694H20.2622V9.677Z" fill="url(#paint6_linear_98_84)"/>
<path d="M20.2622 9.677H19.9512V17.8694H20.2622V9.677Z" fill="url(#paint7_linear_98_84)"/>
<path d="M6.54668 19.3563H2.0657C0.926158 19.3563 0 20.2802 0 21.422V25.903C0 27.0425 0.923888 27.9687 2.0657 27.9687H6.54668C7.68622 27.9687 8.61238 27.0448 8.61238 25.903V21.422C8.61238 20.2802 7.68849 19.3563 6.54668 19.3563ZM7.33664 25.2379C7.33664 26.0415 6.68515 26.6907 5.88384 26.6907H2.73081C1.92723 26.6907 1.27801 26.0392 1.27801 25.2379V22.0848C1.27801 21.2813 1.9295 20.632 2.73081 20.632H5.88384C6.68742 20.632 7.33664 21.2835 7.33664 22.0848V25.2379Z" fill="url(#paint8_linear_98_84)"/>
<path d="M16.5799 19.3563H12.0989C10.9594 19.3563 10.0332 20.2802 10.0332 21.422V25.903C10.0332 27.0425 10.9571 27.9687 12.0989 27.9687H16.5799C17.7194 27.9687 18.6456 27.0448 18.6456 25.903V21.422C18.6456 20.2802 17.7217 19.3563 16.5799 19.3563ZM17.3721 25.2379C17.3721 26.0415 16.7206 26.6907 15.9193 26.6907H12.7663C11.9627 26.6907 11.3135 26.0392 11.3135 25.2379V22.0848C11.3135 21.2813 11.965 20.632 12.7663 20.632H15.9193C16.7229 20.632 17.3721 21.2835 17.3721 22.0848V25.2379Z" fill="url(#paint9_linear_98_84)"/>
<path d="M19.9512 18.2894V26.4591C19.9512 27.2922 20.6276 27.9687 21.4607 27.9687H27.054C27.8871 27.9687 28.5635 27.2922 28.5635 26.4591V18.2894H20.2644H19.9512Z" fill="url(#paint10_linear_98_84)"/>
<path d="M28.5608 17.8717H20.2617V18.2894H28.5608V17.8717Z" fill="url(#paint11_linear_98_84)"/>
<path d="M28.5608 17.8717H20.2617V18.2894H28.5608V17.8717Z" fill="url(#paint12_linear_98_84)"/>
<path d="M20.2622 17.8717H19.9512V18.2894H20.2622V17.8717Z" fill="url(#paint13_linear_98_84)"/>
<path d="M20.2622 17.8717H19.9512V18.2894H20.2622V17.8717Z" fill="url(#paint14_linear_98_84)"/>
<path d="M20.2622 17.8717H19.9512V18.2894H20.2622V17.8717Z" fill="url(#paint15_linear_98_84)"/>
<defs>
<linearGradient id="paint0_linear_98_84" x1="8.73723" y1="25.4589" x2="0.172693" y2="3.27358" gradientUnits="userSpaceOnUse">
<stop/>
<stop offset="1" stop-color="#999999"/>
</linearGradient>
<linearGradient id="paint1_linear_98_84" x1="11.5685" y1="23.1149" x2="3.00395" y2="0.929582" gradientUnits="userSpaceOnUse">
<stop/>
<stop offset="1" stop-color="#8A8A8A"/>
</linearGradient>
<linearGradient id="paint2_linear_98_84" x1="20.5098" y1="20.2836" x2="11.9453" y2="-1.90166" gradientUnits="userSpaceOnUse">
<stop/>
<stop offset="1" stop-color="#9D9D9D"/>
</linearGradient>
<linearGradient id="paint3_linear_98_84" x1="29.332" y1="17.4524" x2="20.7674" y2="-4.73291" gradientUnits="userSpaceOnUse">
<stop/>
<stop offset="1" stop-color="#9C9C9C"/>
</linearGradient>
<linearGradient id="paint4_linear_98_84" x1="12.7066" y1="10.4099" x2="24.2601" y2="25.6635" gradientUnits="userSpaceOnUse">
<stop stop-color="#FBB075"/>
<stop offset="1" stop-color="#FF0058"/>
</linearGradient>
<linearGradient id="paint5_linear_98_84" x1="18.6233" y1="6.63391" x2="29.3776" y2="20.8324" gradientUnits="userSpaceOnUse">
<stop stop-color="#FBB075"/>
<stop offset="1" stop-color="#FF0058"/>
</linearGradient>
<linearGradient id="paint6_linear_98_84" x1="15.7891" y1="8.0749" x2="27.3425" y2="23.3286" gradientUnits="userSpaceOnUse">
<stop stop-color="#FBB075"/>
<stop offset="1" stop-color="#FF0058"/>
</linearGradient>
<linearGradient id="paint7_linear_98_84" x1="16.1288" y1="8.52341" x2="26.883" y2="22.722" gradientUnits="userSpaceOnUse">
<stop stop-color="#FBB075"/>
<stop offset="1" stop-color="#FF0058"/>
</linearGradient>
<linearGradient id="paint8_linear_98_84" x1="5.90597" y1="27.8029" x2="-2.65858" y2="5.61759" gradientUnits="userSpaceOnUse">
<stop/>
<stop offset="1" stop-color="#C2C2C2"/>
</linearGradient>
<linearGradient id="paint9_linear_98_84" x1="14.8466" y1="24.9716" x2="6.28203" y2="2.78635" gradientUnits="userSpaceOnUse">
<stop/>
<stop offset="1" stop-color="#E5E5E5"/>
</linearGradient>
<linearGradient id="paint10_linear_98_84" x1="13.738" y1="8.73957" x2="25.4924" y2="24.2584" gradientUnits="userSpaceOnUse">
<stop stop-color="#FBB075"/>
<stop offset="1" stop-color="#FF0058"/>
</linearGradient>
<linearGradient id="paint11_linear_98_84" x1="16.792" y1="8.02133" x2="27.5455" y2="22.2196" gradientUnits="userSpaceOnUse">
<stop stop-color="#FBB075"/>
<stop offset="1" stop-color="#FF0058"/>
</linearGradient>
<linearGradient id="paint12_linear_98_84" x1="16.0245" y1="7.00809" x2="27.778" y2="22.5267" gradientUnits="userSpaceOnUse">
<stop stop-color="#FBB075"/>
<stop offset="1" stop-color="#FF0058"/>
</linearGradient>
<linearGradient id="paint13_linear_98_84" x1="13.7169" y1="9.64486" x2="25.2695" y2="24.8983" gradientUnits="userSpaceOnUse">
<stop stop-color="#FBB075"/>
<stop offset="1" stop-color="#FF0058"/>
</linearGradient>
<linearGradient id="paint14_linear_98_84" x1="14.0566" y1="10.0933" x2="24.8101" y2="24.2917" gradientUnits="userSpaceOnUse">
<stop stop-color="#FBB075"/>
<stop offset="1" stop-color="#FF0058"/>
</linearGradient>
<linearGradient id="paint15_linear_98_84" x1="13.2891" y1="9.08009" x2="25.0426" y2="24.5988" gradientUnits="userSpaceOnUse">
<stop stop-color="#FBB075"/>
<stop offset="1" stop-color="#FF0058"/>
</linearGradient>
</defs>
</svg>
